<svg id="Layer_1" data-name="Layer 1" xmlns="http://www.w3.org/2000/svg" viewBox="0 0 289.96 184.59">
  <defs>
    <style>
      .cls-1 {
        fill: #65ae74;
      }

      .cls-2 {
        fill: #ccc;
      }

      .cls-3 {
        fill: #fff;
      }
    </style>
  </defs>
  <title>logo</title>
  <path class="cls-1" d="M145.69,129.3A64.32,64.32,0,1,1,145,53.67l29.79,1.82,2.83-2.8-8.22-12.94-14.74,4.83a78,78,0,0,0-13.21-13.36l5.21-15.9L133.41,7.55,121.35,19.72a77,77,0,0,0-17.07-4.47L101,0H85.62l-3.9,15.32a77,77,0,0,0-17.36,4.74L53,7.55,39.68,15.23l4.69,16.62A78,78,0,0,0,32.11,44.39l-15-4.63L9.58,53.1,21,64a77,77,0,0,0-4.39,16.62L.26,83.91,0,99.24l16.64,4.53a76.94,76.94,0,0,0,4.59,16.85L9.4,131.2,17,144.55l15.69-4.26A78,78,0,0,0,45,152.68l-5.44,16.59L52.82,177,65.4,164.35a77,77,0,0,0,16.4,4.34l3.47,15.9H100.6l4-15.89A77,77,0,0,0,122.08,164l10.06,11.87,13.54-7.19-3.94-16.15a78,78,0,0,0,12.57-12.71L169.1,145l8-13.06-4.37-4.5C163,128.11,152.93,128.81,145.69,129.3Z"/>
  <path class="cls-2" d="M290,116.67l-156.39.67A53.83,53.83,0,1,1,73.88,33.55a61,61,0,1,0,68.32,92.84h0Z"/>
  <g>
    <path class="cls-3" d="M93.76,128.33H88.5V69.7q0-7.31.26-13.84-.68,1.18-1.52,2.48t-7.72,11L76.66,62.9,89.21,46.08h4.54Z"/>
    <path class="cls-3" d="M116.87,66.75a5.43,5.43,0,0,1-2.2,4.64A10.23,10.23,0,0,1,108.48,73a13.27,13.27,0,0,1-6.57-1.36v-3a15.73,15.73,0,0,0,3.28,1.24,13.47,13.47,0,0,0,3.37.45,7.55,7.55,0,0,0,3.87-.82,2.84,2.84,0,0,0,.28-4.64,16.78,16.78,0,0,0-4.19-2.11,22.53,22.53,0,0,1-4.21-2,5.8,5.8,0,0,1-1.86-1.9,5,5,0,0,1-.61-2.54A4.86,4.86,0,0,1,104,52.2a9.7,9.7,0,0,1,5.78-1.52,16.67,16.67,0,0,1,6.69,1.42l-1.14,2.66a15.14,15.14,0,0,0-5.78-1.34,6.56,6.56,0,0,0-3.44.73,2.26,2.26,0,0,0-1.16,2,2.47,2.47,0,0,0,.44,1.48,4.31,4.31,0,0,0,1.4,1.16,31.05,31.05,0,0,0,3.71,1.59,13.81,13.81,0,0,1,5.1,2.81A5,5,0,0,1,116.87,66.75Z"/>
    <path class="cls-3" d="M128.94,70.33a10.31,10.31,0,0,0,1.64-.13,10.48,10.48,0,0,0,1.26-.27v2.5a5.79,5.79,0,0,1-1.54.42,11.36,11.36,0,0,1-1.83.17q-6.15,0-6.15-6.59V53.61h-3V52l3-1.36,1.35-4.6h1.86v5h6.15v2.54h-6.15V66.3a4.41,4.41,0,0,0,.91,3A3.14,3.14,0,0,0,128.94,70.33Z"/>
  </g>
  <g>
    <path class="cls-3" d="M184.07,89.38c.68-.07,1.29-.07,1.77-.13C183.19,91.39,182,93,182,96.37c-.2,3.72-.2,5.8-.2,7.39s0,2.52.07,4.22c-4,0-10.07,2.09-17.41,2.09-15.3,0-24.49-8.9-24.49-22,0-14.64,11.49-23.78,25.64-23.78,6.39,0,12.17,1.83,16,1.83h.75c-.07,1.77-.07,3.41-.07,5.11s.14,4.67.2,6.37c-2.86-4-7.69-11-16.94-11-8.71,0-17.82,6.37-17.82,19.74,0,14.06,10,21.38,19,21.38a16.38,16.38,0,0,0,8.64-2.4c0-9.65-.34-13.68-7.68-16.08,1.29.06,2.52.06,3.81.13,2.18.06,4.9.06,7.28.06S182.92,89.44,184.07,89.38Z"/>
    <path class="cls-3" d="M209.6,104.89a21.41,21.41,0,0,0,10.88-2.9,19.54,19.54,0,0,1-3.67,4,17.09,17.09,0,0,1-11.15,4c-7.82,0-15.78-4.8-15.78-15.2S197.91,78,207.16,78s13.26,6.63,13.26,12.68c0,.82-.07,1.58-.14,2.27L197,93.29C197.57,101.42,203.07,104.89,209.6,104.89Zm3.47-16.59c0-4.28-2.45-8.26-7.14-8.26-4,0-8.78,3-9,11.23l16-.38A11,11,0,0,0,213.07,88.3Z"/>
    <path class="cls-3" d="M243.56,103.88a12.33,12.33,0,0,1-10.82,6c-5.17,0-8.3-2.84-8.3-6.88,0-7,10-8.64,15.91-8.64a21.56,21.56,0,0,1,3.26.18c.07-2,.2-4.66.2-5.17.2-4.61-2.72-6.88-7.82-6.88a16.39,16.39,0,0,0-9.38,2.9c2.18-5.24,7.14-7.45,11.77-7.45C245.74,78,250,81.81,250,88.62c0,2.27-.41,5.61-.41,9.46,0,6.37,1.43,7.82,6.33,9a11.24,11.24,0,0,1-7.07,2.78C244.79,109.88,243.77,106.53,243.56,103.88Zm0-7.07c0-.18,0-.95.07-2-7.55.82-12.72,2.27-12.72,6.43,0,2.53,2,3.91,5,3.91a19.3,19.3,0,0,0,7.62-1.89v-1.39C243.49,100.54,243.56,97.2,243.56,96.82Z"/>
    <path class="cls-3" d="M275.76,109.25c-1.22-.06-2.45-.06-3.74-.12-2.18-.07-5-.13-7.21-.13s-4.29.06-5.72.13c-.81.06-1.57.06-2.24.12,4.62-3.22,5-5.17,5-13.56,0-10.1-.61-11.29-5.5-14.14l11.56-3.84L267.66,85h.14c3.33-4.8,6.94-7,10.41-7,2.65,0,4.29,1.26,4.29,3.28s-1.84,3.85-4.49,3.85c-2.24,0-3.13-1.2-5.24-1.2A10.15,10.15,0,0,0,268,85.34v8.45C268,104.71,268.68,106.22,275.76,109.25Z"/>
  </g>
  <g>
    <path class="cls-3" d="M197,148.09l-2.23-5.69H187.6l-2.2,5.69h-2.1l7.07-18h1.75l7,18Zm-2.88-7.56L192,135q-.4-1.05-.83-2.58a23.18,23.18,0,0,1-.77,2.58l-2.1,5.54Z"/>
    <path class="cls-3" d="M205.63,146.66a6.63,6.63,0,0,0,1-.08,6.73,6.73,0,0,0,.8-.17V148a3.71,3.71,0,0,1-1,.26,7.3,7.3,0,0,1-1.16.1q-3.89,0-3.89-4.1v-8h-1.92v-1l1.92-.84.86-2.86h1.17v3.11h3.89v1.58h-3.89v7.89a2.71,2.71,0,0,0,.58,1.86A2,2,0,0,0,205.63,146.66Z"/>
    <path class="cls-3" d="M219.32,148.09v-8.68a3.5,3.5,0,0,0-.75-2.45,3,3,0,0,0-2.34-.81,3.83,3.83,0,0,0-3.09,1.15,5.83,5.83,0,0,0-1,3.77v7h-2V129h2v5.76a12.56,12.56,0,0,1-.1,1.73h.12a4.14,4.14,0,0,1,1.71-1.52,5.55,5.55,0,0,1,2.53-.56,5.17,5.17,0,0,1,3.69,1.17,4.92,4.92,0,0,1,1.23,3.71v8.75Z"/>
    <path class="cls-3" d="M227.56,148.09h-2V129h2Z"/>
    <path class="cls-3" d="M237.53,148.33a6.16,6.16,0,0,1-4.69-1.81,7,7,0,0,1-1.72-5,7.77,7.77,0,0,1,1.6-5.15,5.3,5.3,0,0,1,4.29-1.91,5.06,5.06,0,0,1,4,1.66,6.35,6.35,0,0,1,1.47,4.37v1.28h-9.24a5.32,5.32,0,0,0,1.19,3.59,4.13,4.13,0,0,0,3.19,1.22,10.8,10.8,0,0,0,4.28-.91v1.81a10.75,10.75,0,0,1-2,.67A11.45,11.45,0,0,1,237.53,148.33Zm-.55-12.2a3.32,3.32,0,0,0-2.58,1.05,4.85,4.85,0,0,0-1.13,2.91h7a4.47,4.47,0,0,0-.86-2.94A3,3,0,0,0,237,136.13Z"/>
    <path class="cls-3" d="M250.26,146.66a6.63,6.63,0,0,0,1-.08,6.73,6.73,0,0,0,.8-.17V148a3.71,3.71,0,0,1-1,.26,7.3,7.3,0,0,1-1.16.1q-3.89,0-3.89-4.1v-8h-1.92v-1l1.92-.84.86-2.86h1.17v3.11H252v1.58H248.1v7.89a2.71,2.71,0,0,0,.58,1.86A2,2,0,0,0,250.26,146.66Z"/>
    <path class="cls-3" d="M254.6,131a1.35,1.35,0,0,1,.34-1,1.27,1.27,0,0,1,1.7,0,1.32,1.32,0,0,1,.35,1,1.35,1.35,0,0,1-.35,1,1.24,1.24,0,0,1-1.7,0A1.37,1.37,0,0,1,254.6,131Zm2.2,17h-2V134.68h2Z"/>
    <path class="cls-3" d="M266.47,148.33a5.72,5.72,0,0,1-4.51-1.79,7.37,7.37,0,0,1-1.6-5.07,7.6,7.6,0,0,1,1.62-5.2,5.84,5.84,0,0,1,4.62-1.84,9.17,9.17,0,0,1,1.93.21,6.37,6.37,0,0,1,1.52.49l-.62,1.73a9.55,9.55,0,0,0-1.47-.45,6.56,6.56,0,0,0-1.41-.18q-4.09,0-4.09,5.21a6.21,6.21,0,0,0,1,3.79,3.47,3.47,0,0,0,3,1.32,9,9,0,0,0,3.44-.72v1.8A7.33,7.33,0,0,1,266.47,148.33Z"/>
    <path class="cls-3" d="M281.69,144.43a3.36,3.36,0,0,1-1.39,2.89,6.56,6.56,0,0,1-3.92,1,8.51,8.51,0,0,1-4.16-.84V145.6a10.06,10.06,0,0,0,2.07.77,8.66,8.66,0,0,0,2.14.28,4.84,4.84,0,0,0,2.45-.51,1.75,1.75,0,0,0,.18-2.89,10.68,10.68,0,0,0-2.65-1.32,14.36,14.36,0,0,1-2.66-1.22,3.64,3.64,0,0,1-1.17-1.18,3.08,3.08,0,0,1-.39-1.58,3,3,0,0,1,1.33-2.59,6.21,6.21,0,0,1,3.66-.95,10.7,10.7,0,0,1,4.23.88l-.72,1.65a9.72,9.72,0,0,0-3.66-.83,4.21,4.21,0,0,0-2.18.45,1.4,1.4,0,0,0-.73,1.25,1.52,1.52,0,0,0,.28.92,2.72,2.72,0,0,0,.89.72,19.82,19.82,0,0,0,2.35,1,8.78,8.78,0,0,1,3.22,1.75A3.09,3.09,0,0,1,281.69,144.43Z"/>
  </g>
</svg>
